<svg width="512" height="512" viewBox="0 0 512 512" fill="none" xmlns="http://www.w3.org/2000/svg">
<rect width="512" height="512" fill="#EFF8FF"/>
<path d="M235.429 300.333C224.846 309.547 211.857 316 197.125 316C170.548 316 149 294.948 149 269C149 243.052 170.548 222 197.125 222C235.429 222 259 269 259 269C259 269 282.571 316 320.875 316C347.452 316 369 294.948 369 269C369 243.052 347.452 222 320.875 222C306.452 222 293.051 228.732 282.571 237.667" stroke="#AF0000" stroke-width="15" stroke-miterlimit="10" stroke-linecap="round"/>
<rect x="275" y="116" width="12" height="126" rx="6" fill="#AF0000"/>
<rect x="142" y="116" width="12" height="161" rx="6" fill="#AF0000"/>
<path d="M82.42 392.7C78.5467 392.7 75.21 391.977 72.41 390.53C69.61 389.083 67.44 387.03 65.9 384.37C64.4067 381.71 63.66 378.56 63.66 374.92C63.66 371.373 64.3833 368.27 65.83 365.61C67.3233 362.95 69.3533 360.873 71.92 359.38C74.5333 357.84 77.4967 357.07 80.81 357.07C83.2367 357.07 85.4067 357.467 87.32 358.26C89.28 359.053 90.9367 360.197 92.29 361.69C93.69 363.183 94.74 365.003 95.44 367.15C96.1867 369.25 96.56 371.63 96.56 374.29C96.56 375.13 96.2567 375.783 95.65 376.25C95.09 376.67 94.2733 376.88 93.2 376.88H70.73V371.84H90.4L89.28 372.89C89.28 370.743 88.9533 368.947 88.3 367.5C87.6933 366.053 86.7833 364.957 85.57 364.21C84.4033 363.417 82.9333 363.02 81.16 363.02C79.2 363.02 77.52 363.487 76.12 364.42C74.7667 365.307 73.7167 366.59 72.97 368.27C72.27 369.903 71.92 371.863 71.92 374.15V374.64C71.92 378.467 72.8067 381.337 74.58 383.25C76.4 385.117 79.06 386.05 82.56 386.05C83.7733 386.05 85.1267 385.91 86.62 385.63C88.16 385.303 89.6067 384.767 90.96 384.02C91.94 383.46 92.8033 383.227 93.55 383.32C94.2967 383.367 94.88 383.623 95.3 384.09C95.7667 384.557 96.0467 385.14 96.14 385.84C96.2333 386.493 96.0933 387.17 95.72 387.87C95.3933 388.57 94.81 389.177 93.97 389.69C92.3367 390.717 90.4467 391.487 88.3 392C86.2 392.467 84.24 392.7 82.42 392.7ZM116.803 392.56C115.636 392.56 114.609 392.257 113.723 391.65C112.883 391.043 112.183 390.11 111.623 388.85L100.493 363.02C100.073 361.993 99.9092 361.037 100.003 360.15C100.143 359.263 100.563 358.563 101.263 358.05C102.009 357.49 103.013 357.21 104.273 357.21C105.346 357.21 106.209 357.467 106.863 357.98C107.516 358.447 108.099 359.357 108.613 360.71L118.063 384.3H115.963L125.693 360.64C126.206 359.333 126.789 358.447 127.443 357.98C128.143 357.467 129.076 357.21 130.243 357.21C131.269 357.21 132.086 357.49 132.693 358.05C133.299 358.563 133.673 359.263 133.813 360.15C133.953 360.99 133.789 361.923 133.323 362.95L121.983 388.85C121.469 390.11 120.769 391.043 119.883 391.65C119.043 392.257 118.016 392.56 116.803 392.56ZM156.043 392.7C152.17 392.7 148.833 391.977 146.033 390.53C143.233 389.083 141.063 387.03 139.523 384.37C138.03 381.71 137.283 378.56 137.283 374.92C137.283 371.373 138.006 368.27 139.453 365.61C140.946 362.95 142.976 360.873 145.543 359.38C148.156 357.84 151.12 357.07 154.433 357.07C156.86 357.07 159.03 357.467 160.943 358.26C162.903 359.053 164.56 360.197 165.913 361.69C167.313 363.183 168.363 365.003 169.063 367.15C169.81 369.25 170.183 371.63 170.183 374.29C170.183 375.13 169.88 375.783 169.273 376.25C168.713 376.67 167.896 376.88 166.823 376.88H144.353V371.84H164.023L162.903 372.89C162.903 370.743 162.576 368.947 161.923 367.5C161.316 366.053 160.406 364.957 159.193 364.21C158.026 363.417 156.556 363.02 154.783 363.02C152.823 363.02 151.143 363.487 149.743 364.42C148.39 365.307 147.34 366.59 146.593 368.27C145.893 369.903 145.543 371.863 145.543 374.15V374.64C145.543 378.467 146.43 381.337 148.203 383.25C150.023 385.117 152.683 386.05 156.183 386.05C157.396 386.05 158.75 385.91 160.243 385.63C161.783 385.303 163.23 384.767 164.583 384.02C165.563 383.46 166.426 383.227 167.173 383.32C167.92 383.367 168.503 383.623 168.923 384.09C169.39 384.557 169.67 385.14 169.763 385.84C169.856 386.493 169.716 387.17 169.343 387.87C169.016 388.57 168.433 389.177 167.593 389.69C165.96 390.717 164.07 391.487 161.923 392C159.823 392.467 157.863 392.7 156.043 392.7ZM181.453 392.56C180.053 392.56 178.979 392.187 178.233 391.44C177.486 390.647 177.113 389.527 177.113 388.08V361.62C177.113 360.173 177.486 359.077 178.233 358.33C178.979 357.583 180.029 357.21 181.383 357.21C182.736 357.21 183.786 357.583 184.533 358.33C185.279 359.077 185.653 360.173 185.653 361.62V366.38L184.883 364.63C185.909 362.157 187.496 360.29 189.643 359.03C191.836 357.723 194.309 357.07 197.063 357.07C199.816 357.07 202.079 357.583 203.853 358.61C205.626 359.637 206.956 361.2 207.843 363.3C208.729 365.353 209.173 367.967 209.173 371.14V388.08C209.173 389.527 208.799 390.647 208.053 391.44C207.306 392.187 206.233 392.56 204.833 392.56C203.433 392.56 202.336 392.187 201.543 391.44C200.796 390.647 200.423 389.527 200.423 388.08V371.56C200.423 368.9 199.909 366.963 198.883 365.75C197.903 364.537 196.363 363.93 194.263 363.93C191.696 363.93 189.643 364.747 188.103 366.38C186.609 367.967 185.863 370.09 185.863 372.75V388.08C185.863 391.067 184.393 392.56 181.453 392.56ZM233.74 392.7C230.706 392.7 228.163 392.187 226.11 391.16C224.103 390.133 222.61 388.64 221.63 386.68C220.65 384.673 220.16 382.2 220.16 379.26V364.35H216.52C215.4 364.35 214.536 364.07 213.93 363.51C213.323 362.903 213.02 362.087 213.02 361.06C213.02 359.987 213.323 359.17 213.93 358.61C214.536 358.05 215.4 357.77 216.52 357.77H220.16V351.4C220.16 349.953 220.533 348.857 221.28 348.11C222.073 347.363 223.17 346.99 224.57 346.99C225.97 346.99 227.043 347.363 227.79 348.11C228.536 348.857 228.91 349.953 228.91 351.4V357.77H236.33C237.45 357.77 238.313 358.05 238.92 358.61C239.526 359.17 239.83 359.987 239.83 361.06C239.83 362.087 239.526 362.903 238.92 363.51C238.313 364.07 237.45 364.35 236.33 364.35H228.91V378.77C228.91 381.01 229.4 382.69 230.38 383.81C231.36 384.93 232.946 385.49 235.14 385.49C235.933 385.49 236.633 385.42 237.24 385.28C237.846 385.14 238.383 385.047 238.85 385C239.41 384.953 239.876 385.14 240.25 385.56C240.623 385.933 240.81 386.727 240.81 387.94C240.81 388.873 240.646 389.713 240.32 390.46C240.04 391.16 239.503 391.65 238.71 391.93C238.103 392.117 237.31 392.28 236.33 392.42C235.35 392.607 234.486 392.7 233.74 392.7ZM276.459 392.7C274.452 392.7 272.329 392.49 270.089 392.07C267.849 391.65 265.842 390.927 264.069 389.9C263.322 389.433 262.786 388.897 262.459 388.29C262.179 387.637 262.062 387.007 262.109 386.4C262.202 385.747 262.436 385.187 262.809 384.72C263.229 384.253 263.742 383.95 264.349 383.81C265.002 383.67 265.702 383.787 266.449 384.16C268.316 385.047 270.066 385.677 271.699 386.05C273.332 386.377 274.942 386.54 276.529 386.54C278.769 386.54 280.426 386.167 281.499 385.42C282.619 384.627 283.179 383.6 283.179 382.34C283.179 381.267 282.806 380.45 282.059 379.89C281.359 379.283 280.286 378.84 278.839 378.56L271.839 377.23C268.946 376.67 266.729 375.62 265.189 374.08C263.696 372.493 262.949 370.463 262.949 367.99C262.949 365.75 263.556 363.813 264.769 362.18C266.029 360.547 267.756 359.287 269.949 358.4C272.142 357.513 274.662 357.07 277.509 357.07C279.562 357.07 281.476 357.303 283.249 357.77C285.069 358.19 286.819 358.867 288.499 359.8C289.199 360.173 289.666 360.663 289.899 361.27C290.179 361.877 290.249 362.507 290.109 363.16C289.969 363.767 289.689 364.327 289.269 364.84C288.849 365.307 288.312 365.61 287.659 365.75C287.052 365.843 286.352 365.703 285.559 365.33C284.112 364.583 282.712 364.047 281.359 363.72C280.052 363.393 278.792 363.23 277.579 363.23C275.292 363.23 273.589 363.627 272.469 364.42C271.396 365.213 270.859 366.263 270.859 367.57C270.859 368.55 271.186 369.367 271.839 370.02C272.492 370.673 273.496 371.117 274.849 371.35L281.849 372.68C284.882 373.24 287.169 374.267 288.709 375.76C290.296 377.253 291.089 379.26 291.089 381.78C291.089 385.187 289.759 387.87 287.099 389.83C284.439 391.743 280.892 392.7 276.459 392.7ZM302.589 392.56C301.189 392.56 300.115 392.187 299.369 391.44C298.622 390.647 298.249 389.527 298.249 388.08V361.62C298.249 360.173 298.622 359.077 299.369 358.33C300.115 357.583 301.165 357.21 302.519 357.21C303.872 357.21 304.922 357.583 305.669 358.33C306.415 359.077 306.789 360.173 306.789 361.62V366.73L306.019 364.63C306.952 362.297 308.399 360.453 310.359 359.1C312.319 357.747 314.652 357.07 317.359 357.07C320.112 357.07 322.375 357.723 324.149 359.03C325.922 360.337 327.159 362.343 327.859 365.05H326.879C327.812 362.577 329.352 360.64 331.499 359.24C333.645 357.793 336.119 357.07 338.919 357.07C341.532 357.07 343.679 357.583 345.359 358.61C347.085 359.637 348.369 361.2 349.209 363.3C350.049 365.353 350.469 367.967 350.469 371.14V388.08C350.469 389.527 350.072 390.647 349.279 391.44C348.532 392.187 347.459 392.56 346.059 392.56C344.659 392.56 343.585 392.187 342.839 391.44C342.092 390.647 341.719 389.527 341.719 388.08V371.49C341.719 368.877 341.275 366.963 340.389 365.75C339.549 364.537 338.102 363.93 336.049 363.93C333.762 363.93 331.965 364.747 330.659 366.38C329.352 367.967 328.699 370.183 328.699 373.03V388.08C328.699 389.527 328.325 390.647 327.579 391.44C326.832 392.187 325.759 392.56 324.359 392.56C322.959 392.56 321.862 392.187 321.069 391.44C320.322 390.647 319.949 389.527 319.949 388.08V371.49C319.949 368.877 319.505 366.963 318.619 365.75C317.779 364.537 316.355 363.93 314.349 363.93C312.062 363.93 310.265 364.747 308.959 366.38C307.652 367.967 306.999 370.183 306.999 373.03V388.08C306.999 391.067 305.529 392.56 302.589 392.56ZM370.765 392.7C368.292 392.7 366.075 392.233 364.115 391.3C362.202 390.32 360.685 389.013 359.565 387.38C358.492 385.747 357.955 383.903 357.955 381.85C357.955 379.33 358.609 377.347 359.915 375.9C361.222 374.407 363.345 373.333 366.285 372.68C369.225 372.027 373.169 371.7 378.115 371.7H381.615V376.74H378.185C375.292 376.74 372.982 376.88 371.255 377.16C369.529 377.44 368.292 377.93 367.545 378.63C366.845 379.283 366.495 380.217 366.495 381.43C366.495 382.97 367.032 384.23 368.105 385.21C369.179 386.19 370.672 386.68 372.585 386.68C374.125 386.68 375.479 386.33 376.645 385.63C377.859 384.883 378.815 383.88 379.515 382.62C380.215 381.36 380.565 379.913 380.565 378.28V370.23C380.565 367.897 380.052 366.217 379.025 365.19C377.999 364.163 376.272 363.65 373.845 363.65C372.492 363.65 371.022 363.813 369.435 364.14C367.895 364.467 366.262 365.027 364.535 365.82C363.649 366.24 362.855 366.357 362.155 366.17C361.502 365.983 360.989 365.61 360.615 365.05C360.242 364.443 360.055 363.79 360.055 363.09C360.055 362.39 360.242 361.713 360.615 361.06C360.989 360.36 361.619 359.847 362.505 359.52C364.652 358.633 366.705 358.003 368.665 357.63C370.672 357.257 372.492 357.07 374.125 357.07C377.485 357.07 380.239 357.583 382.385 358.61C384.579 359.637 386.212 361.2 387.285 363.3C388.359 365.353 388.895 368.013 388.895 371.28V388.08C388.895 389.527 388.545 390.647 387.845 391.44C387.145 392.187 386.142 392.56 384.835 392.56C383.529 392.56 382.502 392.187 381.755 391.44C381.055 390.647 380.705 389.527 380.705 388.08V384.72H381.265C380.939 386.353 380.285 387.777 379.305 388.99C378.372 390.157 377.182 391.067 375.735 391.72C374.289 392.373 372.632 392.7 370.765 392.7ZM402.257 392.56C400.81 392.56 399.69 392.187 398.897 391.44C398.15 390.647 397.777 389.527 397.777 388.08V361.62C397.777 360.173 398.15 359.077 398.897 358.33C399.643 357.583 400.693 357.21 402.047 357.21C403.4 357.21 404.45 357.583 405.197 358.33C405.943 359.077 406.317 360.173 406.317 361.62V366.03H405.617C406.27 363.23 407.553 361.107 409.467 359.66C411.38 358.213 413.923 357.35 417.097 357.07C418.077 356.977 418.847 357.233 419.407 357.84C420.013 358.4 420.363 359.287 420.457 360.5C420.55 361.667 420.27 362.623 419.617 363.37C419.01 364.07 418.077 364.49 416.817 364.63L415.277 364.77C412.43 365.05 410.283 365.937 408.837 367.43C407.39 368.877 406.667 370.93 406.667 373.59V388.08C406.667 389.527 406.293 390.647 405.547 391.44C404.8 392.187 403.703 392.56 402.257 392.56ZM442.851 392.7C439.818 392.7 437.274 392.187 435.221 391.16C433.214 390.133 431.721 388.64 430.741 386.68C429.761 384.673 429.271 382.2 429.271 379.26V364.35H425.631C424.511 364.35 423.648 364.07 423.041 363.51C422.434 362.903 422.131 362.087 422.131 361.06C422.131 359.987 422.434 359.17 423.041 358.61C423.648 358.05 424.511 357.77 425.631 357.77H429.271V351.4C429.271 349.953 429.644 348.857 430.391 348.11C431.184 347.363 432.281 346.99 433.681 346.99C435.081 346.99 436.154 347.363 436.901 348.11C437.648 348.857 438.021 349.953 438.021 351.4V357.77H445.441C446.561 357.77 447.424 358.05 448.031 358.61C448.638 359.17 448.941 359.987 448.941 361.06C448.941 362.087 448.638 362.903 448.031 363.51C447.424 364.07 446.561 364.35 445.441 364.35H438.021V378.77C438.021 381.01 438.511 382.69 439.491 383.81C440.471 384.93 442.058 385.49 444.251 385.49C445.044 385.49 445.744 385.42 446.351 385.28C446.958 385.14 447.494 385.047 447.961 385C448.521 384.953 448.988 385.14 449.361 385.56C449.734 385.933 449.921 386.727 449.921 387.94C449.921 388.873 449.758 389.713 449.431 390.46C449.151 391.16 448.614 391.65 447.821 391.93C447.214 392.117 446.421 392.28 445.441 392.42C444.461 392.607 443.598 392.7 442.851 392.7Z" fill="#07264E"/>
</svg>
